<svg viewBox="0 0 32 32"><rect width="32" height="32" rx="4" style="fill:#38b2ac"/><path d="M25.54,18.2a9.54,9.54,0,1,1-11-9.42V7.2H13.25a.55.55,0,0,1-.55-.55V4.81a.55.55,0,0,1,.55-.55h5.5a.55.55,0,0,1,.55.55V6.65a.55.55,0,0,1-.55.55H17.47V8.78a9.48,9.48,0,0,1,4.57,2L23.3,9.56a.56.56,0,0,1,.78,0l1.3,1.3a.56.56,0,0,1,0,.78L24,13l0,0A9.48,9.48,0,0,1,25.54,18.2Zm-8.07,1.65v-7a.55.55,0,0,0-.55-.55H15.08a.55.55,0,0,0-.55.55v7a.55.55,0,0,0,.55.55h1.84A.55.55,0,0,0,17.47,19.85Z" style="fill:#fff"/></svg>